<svg width="24" height="24" viewBox="0 0 24 24" fill="none" xmlns="http://www.w3.org/2000/svg">
<path fill-rule="evenodd" clip-rule="evenodd" d="M7.67 2.00009H16.34C19.73 2.00009 22 4.37909 22 7.91909V16.0891C22 19.6201 19.73 22.0001 16.34 22.0001H7.67C4.28 22.0001 2 19.6201 2 16.0891V7.91909C2 4.37909 4.28 2.00009 7.67 2.00009ZM15.58 15.8101C15.83 15.8101 16.08 15.6801 16.22 15.4401C16.44 15.0891 16.32 14.6291 15.96 14.4101L12.4 12.2901V7.66909C12.4 7.26009 12.07 6.91909 11.65 6.91909C11.24 6.91909 10.9 7.26009 10.9 7.66909V12.7201C10.9 12.9801 11.04 13.2301 11.27 13.3601L15.19 15.7001C15.31 15.7801 15.45 15.8101 15.58 15.8101Z" fill="#212121"/>
</svg>
