<svg width="24" height="24" viewBox="0 0 24 24" fill="none" xmlns="http://www.w3.org/2000/svg">
<path fill-rule="evenodd" clip-rule="evenodd" d="M15.8498 2.50069C16.4808 2.50069 17.1108 2.58969 17.7098 2.79069C21.4008 3.99069 22.7308 8.04069 21.6198 11.5807C20.9898 13.3897 19.9598 15.0407 18.6108 16.3897C16.6798 18.2597 14.5608 19.9197 12.2798 21.3497L12.0298 21.5007L11.7698 21.3397C9.48077 19.9197 7.34977 18.2597 5.40077 16.3797C4.06077 15.0307 3.02977 13.3897 2.38977 11.5807C1.25977 8.04069 2.58977 3.99069 6.32077 2.76969C6.61077 2.66969 6.90977 2.59969 7.20977 2.56069H7.32977C7.61077 2.51969 7.88977 2.50069 8.16977 2.50069H8.27977C8.90977 2.51969 9.51977 2.62969 10.1108 2.83069H10.1698C10.2098 2.84969 10.2398 2.87069 10.2598 2.88969C10.4808 2.96069 10.6898 3.04069 10.8898 3.15069L11.2698 3.32069C11.3616 3.36967 11.4647 3.44449 11.5537 3.50916C11.6102 3.55014 11.661 3.58703 11.6998 3.61069C11.7161 3.62032 11.7327 3.63 11.7494 3.63976C11.8351 3.68981 11.9245 3.74195 11.9998 3.79969C13.1108 2.95069 14.4598 2.49069 15.8498 2.50069ZM18.5098 9.70069C18.9198 9.68969 19.2698 9.36069 19.2998 8.93969V8.82069C19.3298 7.41969 18.4808 6.15069 17.1898 5.66069C16.7798 5.51969 16.3298 5.74069 16.1798 6.16069C16.0398 6.58069 16.2598 7.04069 16.6798 7.18969C17.3208 7.42969 17.7498 8.06069 17.7498 8.75969V8.79069C17.7308 9.01969 17.7998 9.24069 17.9398 9.41069C18.0798 9.58069 18.2898 9.67969 18.5098 9.70069Z" fill="#212121"/>
</svg>
